# xmcd CD database file
#
# Track frame offsets:
#	150
#	21997
#	46510
#
# Disc length: 911 seconds
#
# Revision: 0
# Processed by: cddbd v1.5PL3 Copyright (c) Steve Scherf et al.
# Submitted via: CDex 1.50Beta5
#
DISCID=18038d03
DTITLE=田村直美 - STAIRWAY
DYEAR=1900
DGENRE=J ポップ
TTITLE0=STAIRWAY
TTITLE1=千の祈り
TTITLE2=STAIRWAY（オリジナルカラオケ）
EXTD=
EXTT0=
EXTT1=
EXTT2=
PLAYORDER=
